<svg xmlns="http://www.w3.org/2000/svg" viewBox="0 0 1000 400" width="1000" height="400">
  <style>
    .s { fill: none; stroke: #2F2F2F; stroke-linecap: round; stroke-linejoin: round; }
    .txt { fill: #2F2F2F; font-family: 'Playfair Display', Georgia, serif; }
    .txt-sub { fill: #2F2F2F; font-family: 'Montserrat', 'Inter', Helvetica, sans-serif; letter-spacing: 4px; }
  </style>
  <g transform="translate(150, 10) scale(0.5)">
    <path class="s" stroke-width="4" d="M -5,230 C -20,190 -62,135 -85,85 C -100,48 -98,15 -76,2 C -54,-10 -35,5 -28,32 C -20,60 -16,100 -5,230" />
    <path class="s" stroke-width="4" d="M 5,230 C 20,190 62,135 85,85 C 100,48 98,15 76,2 C 54,-10 35,5 28,32 C 20,60 16,100 5,230" />
    <path class="s" stroke-width="3.5" d="M -6,230 C -10,180 -24,115 -24,60 C -24,20 -14,-8 0,-18 C 14,-8 24,20 24,60 C 24,115 10,180 6,230" />
  </g>
  <g transform="translate(150, 10) scale(0.5)">
    <path class="s" stroke-width="3.5" d="M 0,270 C 0,290 20,322 24,355 C 30,396 -24,416 -28,455 C -32,492 20,515 24,552 C 28,588 0,612 0,642" />
    <path class="s" stroke-width="1.5" opacity="0.32" d="M 4,278 C 5,298 26,328 30,360 C 36,400 -18,418 -22,454 C -26,488 26,510 30,546 C 34,582 6,606 6,635" />
    <path class="s" stroke-width="3.5" d="M -2,385 C -25,360 -88,332 -138,326 C -190,320 -214,342 -204,375 C -194,410 -144,436 -92,428 C -50,422 -10,404 -2,385" />
    <path class="s" stroke-width="1.8" d="M -10,384 C -54,366 -106,350 -172,340" />
    <path class="s" stroke-width="3.5" d="M 8,508 C 31,483 94,455 144,449 C 196,443 218,465 210,498 C 202,532 150,558 100,550 C 58,544 16,528 8,508" />
    <path class="s" stroke-width="1.8" d="M 16,506 C 60,490 112,472 175,462" />
  </g>
  <text class="txt" x="380" y="185" text-anchor="start" font-size="64" font-weight="700">FLORIZZ</text>
  <text class="txt-sub" x="382" y="230" text-anchor="start" font-size="18" font-weight="400">HAIR & SCALP CLINIC</text>
</svg>