<svg xmlns="http://www.w3.org/2000/svg" viewBox="0 0 500 750" width="500" height="750">
  <style>.s { fill: none; stroke: #0E4F3D; stroke-linecap: round; stroke-linejoin: round; }</style>
  <g transform="translate(250, 40)">
    <path class="s" stroke-width="3" d="M -5,230 C -20,190 -62,135 -85,85 C -100,48 -98,15 -76,2 C -54,-10 -35,5 -28,32 C -20,60 -16,100 -5,230" />
    <path class="s" stroke-width="3" d="M 5,230 C 20,190 62,135 85,85 C 100,48 98,15 76,2 C 54,-10 35,5 28,32 C 20,60 16,100 5,230" />
    <path class="s" stroke-width="2.6" d="M -6,230 C -10,180 -24,115 -24,60 C -24,20 -14,-8 0,-18 C 14,-8 24,20 24,60 C 24,115 10,180 6,230" />
  </g>
  <path class="s" stroke-width="2.8" d="M 250,270 C 250,290 270,322 274,355 C 280,396 226,416 222,455 C 218,492 270,515 274,552 C 278,588 250,612 250,642" />
  <path class="s" stroke-width="1.1" opacity="0.32" d="M 254,278 C 255,298 276,328 280,360 C 286,400 232,418 228,454 C 224,488 276,510 280,546 C 284,582 256,606 256,635" />
  <path class="s" stroke-width="2.8" d="M 248,385 C 225,360 162,332 112,326 C 60,320 36,342 46,375 C 56,410 106,436 158,428 C 200,422 240,404 248,385" />
  <path class="s" stroke-width="1.3" d="M 240,384 C 196,366 144,350 78,340" />
  <path class="s" stroke-width="2.8" d="M 258,508 C 281,483 344,455 394,449 C 446,443 468,465 460,498 C 452,532 400,558 350,550 C 308,544 266,528 258,508" />
  <path class="s" stroke-width="1.3" d="M 266,506 C 310,490 362,472 425,462" />
</svg>