<svg xmlns="http://www.w3.org/2000/svg" viewBox="0 0 200 200" width="200" height="200">
  <style>.s { fill: none; stroke: #A7C4B5; stroke-linecap: round; stroke-linejoin: round; }</style>
  <g transform="translate(100, 25) scale(0.65)">
    <path class="s" stroke-width="4" d="M -5,230 C -20,190 -62,135 -85,85 C -100,48 -98,15 -76,2 C -54,-10 -35,5 -28,32 C -20,60 -16,100 -5,230" />
    <path class="s" stroke-width="4" d="M 5,230 C 20,190 62,135 85,85 C 100,48 98,15 76,2 C 54,-10 35,5 28,32 C 20,60 16,100 5,230" />
    <path class="s" stroke-width="3.5" d="M -6,230 C -10,180 -24,115 -24,60 C -24,20 -14,-8 0,-18 C 14,-8 24,20 24,60 C 24,115 10,180 6,230" />
    <!-- Small stem hint -->
    <path class="s" stroke-width="3.5" d="M 0,230 C 0,248 8,265 10,280 C 12,295 0,308 0,308" />
  </g>
</svg>