
<svg xmlns="http://www.w3.org/2000/svg" viewBox="0 0 400 600" width="400" height="600">
  <defs>
    <style>
      .petal { fill: #1A1A1A; }
      .leaf { fill: #1A1A1A; }
    </style>
  </defs>

  <!-- Center petal (tallest) -->
  <path class="petal" d="
    M 200 30
    C 170 30, 145 80, 140 130
    C 135 175, 145 210, 165 235
    C 175 248, 188 255, 200 258
    C 212 255, 225 248, 235 235
    C 255 210, 265 175, 260 130
    C 255 80, 230 30, 200 30
    Z
  "/>

  <!-- Left petal -->
  <path class="petal" d="
    M 175 70
    C 150 65, 115 85, 100 120
    C 85 155, 90 195, 110 225
    C 125 248, 148 258, 170 260
    C 165 240, 155 210, 148 180
    C 140 145, 150 100, 175 70
    Z
  " opacity="0.85"/>

  <!-- Right petal -->
  <path class="petal" d="
    M 225 70
    C 250 65, 285 85, 300 120
    C 315 155, 310 195, 290 225
    C 275 248, 252 258, 230 260
    C 235 240, 245 210, 252 180
    C 260 145, 250 100, 225 70
    Z
  " opacity="0.85"/>

  <!-- Inner petal detail (lighter center highlight) -->
  <path d="
    M 200 80
    C 188 80, 175 110, 172 145
    C 170 175, 178 210, 192 235
    C 196 242, 198 245, 200 248
    C 202 245, 204 242, 208 235
    C 222 210, 230 175, 228 145
    C 225 110, 212 80, 200 80
    Z
  " fill="#1A1A1A" opacity="0.3"/>

  <!-- === REALISTIC HAIR STRAND STEM (v5) === -->
  <!-- Main strand — thick, flowing S-curve -->
  <path d="
    M 200 258
    C 200 272, 206 285, 210 302
    C 216 328, 198 348, 193 372
    C 188 396, 208 418, 213 442
    C 218 466, 198 488, 195 512
    C 192 536, 200 552, 204 570
  " stroke="#1A1A1A" fill="none" stroke-width="4.5" stroke-linecap="round"/>

  <!-- Strand 2 — slightly offset left, medium thickness -->
  <path d="
    M 197 259
    C 195 274, 199 288, 203 306
    C 208 332, 190 354, 186 376
    C 182 400, 200 422, 205 446
    C 210 470, 192 490, 189 516
    C 187 538, 194 554, 198 572
  " stroke="#1A1A1A" fill="none" stroke-width="3.2" stroke-linecap="round" opacity="0.8"/>

  <!-- Strand 3 — offset right, medium -->
  <path d="
    M 203 260
    C 205 276, 212 290, 216 308
    C 222 335, 203 352, 199 378
    C 195 402, 214 424, 218 448
    C 223 472, 204 492, 201 518
    C 198 540, 206 556, 210 572
  " stroke="#1A1A1A" fill="none" stroke-width="3" stroke-linecap="round" opacity="0.75"/>

  <!-- Strand 4 — thin, wispy left edge -->
  <path d="
    M 195 261
    C 192 276, 195 292, 198 310
    C 202 338, 184 358, 181 380
    C 178 404, 196 426, 200 450
    C 205 474, 188 494, 186 520
    C 184 542, 191 556, 195 573
  " stroke="#1A1A1A" fill="none" stroke-width="1.8" stroke-linecap="round" opacity="0.5"/>

  <!-- Strand 5 — thin, wispy right edge -->
  <path d="
    M 206 261
    C 209 278, 218 292, 221 312
    C 226 338, 207 355, 204 380
    C 200 404, 220 426, 224 450
    C 228 474, 208 494, 205 520
    C 202 542, 210 558, 213 573
  " stroke="#1A1A1A" fill="none" stroke-width="1.6" stroke-linecap="round" opacity="0.45"/>

  <!-- Strand 6 — very thin, flyaway strand left -->
  <path d="
    M 194 263
    C 190 280, 192 296, 194 316
    C 198 342, 182 362, 179 384
    C 176 408, 194 430, 197 454
    C 201 478, 186 498, 184 524
    C 183 546, 189 558, 192 574
  " stroke="#1A1A1A" fill="none" stroke-width="1" stroke-linecap="round" opacity="0.3"/>

  <!-- Strand 7 — very thin, flyaway strand right -->
  <path d="
    M 208 263
    C 212 280, 220 296, 224 316
    C 229 342, 210 358, 207 384
    C 204 408, 222 430, 226 452
    C 230 476, 211 496, 208 524
    C 206 546, 213 558, 216 574
  " stroke="#1A1A1A" fill="none" stroke-width="0.8" stroke-linecap="round" opacity="0.25"/>

  <!-- Subtle crossover strand for realism -->
  <path d="
    M 199 265
    C 202 282, 210 298, 214 318
    C 219 346, 195 362, 190 386
    C 186 410, 210 432, 215 456
    C 219 480, 196 500, 193 526
    C 190 548, 198 560, 202 575
  " stroke="#1A1A1A" fill="none" stroke-width="2" stroke-linecap="round" opacity="0.55"/>

  <!-- Left leaf -->
  <path class="leaf" d="
    M 192 385
    C 180 375, 140 355, 110 365
    C 80 375, 70 400, 85 415
    C 95 425, 130 420, 155 410
    C 170 403, 185 393, 192 385
    Z
  " opacity="0.9"/>

  <!-- Left leaf vein -->
  <path d="
    M 190 387
    C 170 382, 135 378, 100 390
  " stroke="#1A1A1A" fill="none" stroke-width="1.5" opacity="0.3"/>

  <!-- Right leaf -->
  <path class="leaf" d="
    M 212 450
    C 225 440, 265 425, 295 438
    C 325 450, 330 475, 315 488
    C 305 496, 270 490, 245 478
    C 228 468, 218 458, 212 450
    Z
  " opacity="0.9"/>

  <!-- Right leaf vein -->
  <path d="
    M 214 452
    C 235 448, 270 447, 305 462
  " stroke="#1A1A1A" fill="none" stroke-width="1.5" opacity="0.3"/>
</svg>
